<?xml version="1.0" encoding="utf-8"?>
<!-- Generator: Adobe Illustrator 24.1.2, SVG Export Plug-In . SVG Version: 6.00 Build 0)  -->
<svg version="1.1" xmlns="http://www.w3.org/2000/svg" xmlns:xlink="http://www.w3.org/1999/xlink" x="0px" y="0px"
	 viewBox="0 0 116.4444 117.3333" style="enable-background:new 0 0 116.4444 117.3333;" xml:space="preserve">
<style type="text/css">
	.st0{fill:none;stroke:#1D1E1C;stroke-width:0.2174;stroke-miterlimit:10;}
	.st1{fill:#DFDFDE;}
	.st2{fill:none;}
	.st3{fill:#777776;}
	.st4{font-family:'BarlowSemiCondensed-SemiBold';}
	.st5{font-size:8.5px;}
	.st6{fill:#1D1D1B;}
	.st7{font-family:'BarlowSemiCondensed-Light';}
	.st8{font-size:7.5px;}
</style>
<g id="Capa_1">
	<polyline class="st0" points="58.2222,79.8662 58.2222,75.9203 97.3889,75.9203 97.3889,80.6356 	"/>
</g>
<g id="Capa_7">
	<polyline class="st0" points="27.3889,79.8662 27.3889,75.9203 58.2222,75.9203 58.2222,79.8662 	"/>
</g>
<g id="piso">
	<path class="st1" d="M20.3889,68.215l38.5-0.1995l38.5,0.1995v0.3999c-6.4167,1.407-12.8333,2.1431-19.25,2.6431
		c-3.2083,0.3132-6.4167,0.3828-9.625,0.5671c-3.2083,0.1113-6.4167,0.1218-9.625,0.1877c-3.2083-0.0554-6.4167-0.0811-9.625-0.1785
		c-3.2083-0.1897-6.4167-0.25-9.625-0.5664c-6.4167-0.498-12.8333-1.2375-19.25-2.6531V68.215z"/>
</g>
<g id="_x35__a_6_kg">
	<rect x="46.8889" y="26.8638" class="st2" width="32" height="7.3756"/>
	<text transform="matrix(0.9909 0 0 1 50.2463 32.8133)" class="st3 st4 st5">5 a 6 kg</text>
</g>
<g id="_x35_6_a_63_cm">
	<rect x="58.3889" y="82.7048" class="st2" width="41" height="5.5449"/>
	<text transform="matrix(0.995 0 0 1 63.7102 87.9554)" class="st6 st7 st8">56 a 63 cm</text>
</g>
<g id="_x33_7_a_47_cm">
	<rect x="25.8889" y="82.7048" class="st2" width="34" height="5.5449"/>
	<text transform="matrix(1.012 0 0 1 27.7737 87.9544)" class="st6 st7 st8">37 a 47 cm</text>
</g>
<g id="panda">
	<path class="st3" d="M38.7698,51.2875c2.0846-0.791,4.2238-1.2444,6.4559-0.8128c1.4011,0.271,2.3285,1.0351,2.4259,2.4998
		c0.1266,1.9059,0.015,3.8369-0.1026,5.7499c-0.0944,1.5342-0.3147,3.0637-0.5463,4.5841
		c-0.1882,1.2357,0.1737,2.1496,1.1863,2.8208c0.9559,0.6336,1.8474,1.3857,2.8422,1.9398c1.9568,1.09,3.9564,0.7538,5.9292-0.0315
		c0.0896-0.0357,0.1695-0.107,0.2436-0.174c0.3499-0.3163,0.3224-0.6159-0.0655-0.8634c-0.2302-0.1469-0.4931-0.2389-0.721-0.3889
		c-1.0661-0.7017-1.4495-1.509-1.0465-2.7359c0.6979-2.1249,1.8836-3.931,3.8847-4.927c2.1389-1.0647,4.4231-1.1947,6.7159-0.6432
		c0.7397,0.1779,1.0955,1.0376,0.9347,1.8742c-0.2128,1.1072-0.4754,2.2041-0.6803,3.3128
		c-0.2741,1.4841,0.1105,2.651,1.0695,3.1849c0.7369,0.4102,1.4838,0.8352,2.2741,1.0977c0.8603,0.2857,1.77,0.4557,2.6701,0.5435
		c0.3579,0.035,0.7478-0.286,1.1231-0.445c-0.1327-0.2849-0.2436-0.5837-0.4022-0.8519c-0.416-0.7029-0.8054-1.4967-0.3686-2.241
		c0.7919-1.3498,1.6978-2.634,2.6348-3.8816c0.3941-0.5248,0.8496-0.3971,1.2033,0.1736c0.7741,1.2491,1.5276,2.5125,2.3216,3.7478
		c0.917,1.427,1.7792,2.9193,3.334,3.7294c2.4714,1.2876,5.0711,1.3541,7.7158,0.8114c0.3372-0.0692,0.8792-0.3906,0.8822-0.6024
		c0.006-0.3981-0.2574-0.8467-0.5156-1.1862c-0.1611-0.2119-0.5085-0.2955-0.7881-0.3804
		c-2.8674-0.8711-4.7926-2.8597-6.0713-5.5848c-0.4924-1.0492-0.2569-1.8369,0.719-2.4195
		c0.5215-0.3114,1.1235-0.5506,1.7153-0.6456c1.2671-0.2033,2.5496-0.3111,3.8288-0.4221c1.4434-0.1253,2.803,0.2166,4.043,0.9824
		c1.0304,0.6364,2.0002,0.4948,3.2608-0.573c0.6137-0.5199,0.6779-1.1015,0.1897-2.3104c-0.2455-0.6078-0.2501-1.1454,0.0185-1.7688
		c0.1975-0.4581,0.2736-1.0369,0.2153-1.5381c-0.1686-1.4483-0.9025-2.6234-1.7786-3.7389
		c-0.3133-0.3991-0.6174-1.0353-0.5407-1.4934c0.2147-1.2804-0.5102-1.9357-1.9446-1.544
		c-0.2278,0.0622-0.4915,0.1502-0.7014,0.0889c-2.758-0.8057-5.6065-0.8576-8.4292-1.1094
		c-1.3468-0.1201-2.6744-0.1646-3.9712-0.726c-2.2699-0.9827-4.5659-1.9284-6.9118-2.6855
		c-3.7913-1.2235-7.652-2.1837-11.6217-2.5655c-2.9512-0.2838-5.9058-0.5321-8.8647-0.1347
		c-2.2235,0.2987-4.4582,0.5504-6.6584,0.9846c-2.8179,0.5561-5.642,1.1442-8.3955,1.9654
		c-2.0707,0.6175-4.0972,1.4911-6.0329,2.4842c-4.0654,2.0858-7.4032,5.0741-9.6136,9.2628
		c-0.8188,1.5516-1.544,3.1733-1.4349,5.0286c0.1073,1.825,1.3253,2.8132,3.0208,2.3886c0.5876-0.1472,1.195-0.3879,1.685-0.7464
		c2.0983-1.5351,4.113-3.1971,6.2414-4.6836c1.9795-1.3826,4.0602-2.6091,6.1066-3.8865
		C37.8759,51.5374,38.5282,51.3792,38.7698,51.2875z"/>
</g>
</svg>
