<?xml version="1.0" encoding="utf-8"?>
<!-- Generator: Adobe Illustrator 22.0.1, SVG Export Plug-In . SVG Version: 6.00 Build 0)  -->
<svg version="1.1" id="Capa_2" xmlns="http://www.w3.org/2000/svg" xmlns:xlink="http://www.w3.org/1999/xlink" x="0px" y="0px" viewBox="0 0 500 400" style="enable-background: new 0 0 500 400;" xml:space="preserve">
    <style type="text/css">
        .bordes {
            fill: none;
            stroke: #000000;
            stroke-linecap: round;
            stroke-linejoin: round;
            stroke-miterlimit: 10;
        }
        .llenos {
            fill: grey;
            stroke: #000000;
            stroke-linecap: round;
            stroke-linejoin: round;
            stroke-miterlimit: 10;
        }

        @keyframes  {
            0% {
                transform: scale(1);
            }
            100% {
                transform: scale(3);
            }
        }

        @keyframes mueve {
            0% {
                transform: translate(0, 50px);
            }
            100% {
                transform: translate(0, 0);
            }
        }

        #uñas {
            transform-origin: center center;
            animation: mueve 1s infinite alternate;
        }

        </style>
        <g id="uñas">
        	<path class="st0" d="M131.6092,92.4713c-7.4713,19.9234-14.9425,39.8467-22.4138,59.7701
        		c6.8966,0.9579,13.7931,1.9157,20.6897,2.8736C130.4598,134.2337,131.0345,113.3525,131.6092,92.4713z"/>
        	<path class="st0" d="M156.3218,136.1494c4.5977-27.7778,9.1954-55.5556,13.7931-83.3333
        		c4.2146,27.9693,8.4291,55.9387,12.6437,83.908C173.9464,136.5326,165.1341,136.341,156.3218,136.1494z"/>
        	<path class="st0" d="M226.4368,52.8161c1.1494,27.0115,2.2988,54.023,3.4483,81.0345
        		c-13.7931-0.7663-27.5862-1.5326-41.3793-2.2988C201.1494,105.3065,213.7931,79.0613,226.4368,52.8161z"/>
        	<path class="st0" d="M246.5517,128.6782c9.387-23.9464,18.774-47.8927,28.1609-71.8391
        		c-0.9579,27.0115-1.9157,54.023-2.8736,81.0345C263.41,134.8084,254.9809,131.7433,246.5517,128.6782z"/>
        	<path class="st0" d="M278.1609,159.1379c8.8123-23.659,17.6245-47.318,26.4368-70.977
        		c1.5326,29.4061,3.0652,58.8123,4.5977,88.2184C298.8506,170.6322,288.5057,164.8851,278.1609,159.1379z"/>
        </g>
        <g id="patita">
        	<path class="st1" d="M75.5747,361.7816c0,0-12.6437-16.4229-12.6437-16.4229c13.3853,2.8399,0.0795-8.7122,0.0021-13.4636
        		c14.7287-5.1209,4.7707-9.9769-0.0031-18.3908c18.5295,2.1626-2.1878-10.1059,12.6455-16.09
        		c-1.6166-5.7349-11.6978-11.4024-0.0008-13.2174c-6.3068-8.68-24.1127-9.4507-0.0015-13.1601
        		c0.0015-0.0023-8.6191-11.8414-8.6191-11.8414c8.8252-1.655,2.1087-21.5516,2.2989-26.7264
        		c-0.0001,0.0023,6.3218,2.8758,6.3218,2.8758c1.4283-2.362-3.3771-19.0275,3.4455-9.1958C79.023,226.1494,75,207.1839,75,207.1839
        		c7.4464-9.8603,7.6411-11.8799,13.218,0.5766c0.9253-4.7687-10.9958-27.1613,0.0012-27.5848
        		c-0.5937-5.4043,0.2709-13.1421,5.7488-16.0939c2.1032-3.0368-4.6475-23.9934,5.1692-19.2659
        		c3.1825-4.3215,2.593-19.8837,8.6192-6.598c2.7817-2.6477,3.3134-30.1999,7.0401-10.0574
        		c0.2813-27.1869,6.848-7.0599,17.9641-0.0008c-0.0021,0.0011,3.7336-20.9759,3.7336-20.9759l2.2988,13.2184
        		c4.2246-13.4546,3.6803-16.7263,6.3216,0.0005c0.0002-0.0005,3.4485-27.012,3.4485-27.012s3.4483,7.4713,3.4483,7.4713
        		s0-9.7701,0-9.7701c3.7556,12.9318,5.6042,8.5224,13.7939,2.2972c-0.0008,0.0016,0.2938-12.6421,0.2938-12.6421
        		c4.078,34.3289,8.6425-5.0857,12.3488,28.4485c0.0002-0.0002,4.0232-15.8048,4.0232-15.8048l2.2989,13.7931
        		c4.6416-26.8101,2.284,0.2097,2.8744,9.1954c-0.0008,0,4.5969-19.2529,4.5969-19.2529c3.5034,18.7299,3.3908,9.2154,10.3457,0.0003
        		c-1.2357,24.9556,3.0038-2.4855,5.3755-8.9087c0.5124,5.4689,9.5035,7.5987,13.5905,8.9081
        		c-0.0014,0.0003,4.5963-8.9077,4.5963-8.9077v15.5172c11.5114-13.9243,8.9924-9.6931,9.1952,5.4609
        		c6.3099,10.7283,4.3689-7.8473,6.7619-10.0584c-0.0028-0.0002,0.1349,17.2412,0.1349,17.2412s7.4713-19.2529,7.4713-19.2529
        		v15.8046c2.5802-7.7734,13.8255-13.9753,21.2662-15.8027c-0.0018-0.0019-0.0018,20.4004-0.0018,20.4004
        		s5.7471-10.3448,5.7471-10.3448s0,17.2414,0,17.2414c10.1712-2.0118,9.6875-8.5833,9.0856-17.2427
        		c14.0703,19.5188-5.2512,20.0423,14.4767,20.9783c10.2735-12.8699,5.9733-4.5836,6.8983,4.8851
        		c6.7224-6.6515,2.1547,9.861,3.4493,11.7679c5.8794-1.6892-0.0523,5.141-0.0012,7.199c8.9659,4.7019,7.567,4.6781-0.5768,9.194
        		c1.0692,6.7228,2.126,20.0591,0.5747,26.7242c12.1007,4.2559-5.2851,9.8839,7.4741,18.6773
        		c-0.0015,0.0007-7.4727,5.7479-7.4727,5.7479c7.2074,2.1226,0.3039,17.4648-0.0002,21.841
        		c8.4901,6.6629-10.8191,2.8589,1.7246,10.3423c-11.9181,12.45,5.3802,24.526-12.0679,26.4949
        		c-0.0013,0,11.4929,12.5862,11.4929,12.5862s-8.9081-2.2989-8.9081-2.2989c2.9273,6.6895,27.4892,39.3553,4.3123,13.7925
        		c30.7216,47.2603-28.5779-22.5559,13.7927,44.8274c-0.0015,0.0007-18.1049-2.2981-18.1049-2.2981
        		c3.0762,3.2218,20.197,25.1591,16.2177,22.7769c-10.9186-10.058-13.7501-3.2666-4.4358,5.3842
        		c-0.0003-0.0002-14.3681-6.8967-14.3681-6.8967l17.2414,18.9655c0,0-9.1954-4.5977-9.1954-4.5977l5.1724,11.4943
        		c-10.1249-9.2043-16.4442-23.2767-31.8383-14.5252c-0.0002-0.0025,8.2751,23.7206,8.2751,23.7206
        		c-3.8387,26.6918-21.5462-1.2713-10.3453,25.2871c0.0005,0.0002-18.965-3.448-18.965-3.448
        		c-5.337-3.4209-39.8412-31.8718-25.289-5.7511c0.0016,0.004-21.2628-20.8696-21.2628-20.8696s7.4713,18.5747,7.4713,18.5747
        		s-27.0115-23.5632-27.0115-23.5632l13.4212,27.5862c0,0-19.1684-22.5977-19.1684-22.5977
        		c-5.4694,3.168-21.9761-11.4472-26.1502-13.6093C135.6183,382.0752,99.1337,377.0023,75.5747,361.7816z"/>
        	<polyline class="st1" points="295.8391,238.1609 293.5704,214.8522 276.5086,202.723 264.0804,200.0206 	"/>
        </g>
        </svg>
